<svg width="64" height="64" viewBox="0 0 64 64" fill="none" xmlns="http://www.w3.org/2000/svg">
  <rect width="64" height="64" rx="14" fill="#FFFFFF"/>
  <path d="M19 11.5L20.978 16.022L25.5 18L20.978 19.978L19 24.5L17.022 19.978L12.5 18L17.022 16.022L19 11.5Z" fill="#2563EB"/>
  <path d="M32 4L34.834 10.166L41 13L34.834 15.834L32 22L29.166 15.834L23 13L29.166 10.166L32 4Z" fill="#2563EB"/>
  <path d="M44 14L45.501 17.499L49 19L45.501 20.501L44 24L42.499 20.501L39 19L42.499 17.499L44 14Z" fill="#2563EB"/>
  <path d="M24 29L25.167 31.833L28 33L25.167 34.167L24 37L22.833 34.167L20 33L22.833 31.833L24 29Z" fill="#2563EB"/>
  <path d="M43 30L44.5 33.5L48 35L44.5 36.5L43 40L41.5 36.5L38 35L41.5 33.5L43 30Z" fill="#2563EB"/>
</svg>
